<svg width="20" height="20" viewBox="0 0 20 20" fill="none" xmlns="http://www.w3.org/2000/svg">
<path d="M9.99996 1.66669C5.40829 1.66669 1.66663 5.40835 1.66663 10C1.66663 14.5917 5.40829 18.3334 9.99996 18.3334C14.5916 18.3334 18.3333 14.5917 18.3333 10C18.3333 5.40835 14.5916 1.66669 9.99996 1.66669ZM13.3333 10.625H10.625V13.3334C10.625 13.675 10.3416 13.9584 9.99996 13.9584C9.65829 13.9584 9.37496 13.675 9.37496 13.3334V10.625H6.66663C6.32496 10.625 6.04163 10.3417 6.04163 10C6.04163 9.65835 6.32496 9.37502 6.66663 9.37502H9.37496V6.66669C9.37496 6.32502 9.65829 6.04169 9.99996 6.04169C10.3416 6.04169 10.625 6.32502 10.625 6.66669V9.37502H13.3333C13.675 9.37502 13.9583 9.65835 13.9583 10C13.9583 10.3417 13.675 10.625 13.3333 10.625Z" fill="#CBC2FF"/>
</svg>
