<svg width="72" height="72" viewBox="0 0 72 72" fill="none" xmlns="http://www.w3.org/2000/svg">
<path d="M36 6C19.47 6 6 19.47 6 36C6 52.53 19.47 66 36 66C52.53 66 66 52.53 66 36C66 19.47 52.53 6 36 6ZM33.75 24C33.75 22.77 34.77 21.75 36 21.75C37.23 21.75 38.25 22.77 38.25 24V39C38.25 40.23 37.23 41.25 36 41.25C34.77 41.25 33.75 40.23 33.75 39V24ZM38.76 49.14C38.61 49.53 38.4 49.83 38.13 50.13C37.83 50.4 37.5 50.61 37.14 50.76C36.78 50.91 36.39 51 36 51C35.61 51 35.22 50.91 34.86 50.76C34.5 50.61 34.17 50.4 33.87 50.13C33.6 49.83 33.39 49.53 33.24 49.14C33.09 48.78 33 48.39 33 48C33 47.61 33.09 47.22 33.24 46.86C33.39 46.5 33.6 46.17 33.87 45.87C34.17 45.6 34.5 45.39 34.86 45.24C35.58 44.94 36.42 44.94 37.14 45.24C37.5 45.39 37.83 45.6 38.13 45.87C38.4 46.17 38.61 46.5 38.76 46.86C38.91 47.22 39 47.61 39 48C39 48.39 38.91 48.78 38.76 49.14Z" fill="#FF4A4A"/>
</svg>
