<svg width="32" height="31" viewBox="0 0 32 31" fill="none" xmlns="http://www.w3.org/2000/svg">
<g clip-path="url(#clip0_20_3662)">
<path fill-rule="evenodd" clip-rule="evenodd" d="M18.138 26.5119H30.3359C30.3359 26.8468 30.349 26.7492 30.3411 27.0841C30.3281 27.659 30.2005 28.1125 29.9193 28.4C29.5937 28.6663 29.1641 28.8034 28.6406 28.8219L19.737 28.7902C19.2005 28.7876 18.8203 28.6399 18.5755 28.3973C18.3568 28.1837 18.2266 27.8726 18.1719 27.4797C18.1042 27.0288 18.1406 26.9681 18.138 26.5119ZM10.612 12.9052H6.75781C6.4375 12.9052 6.17708 13.1716 6.17708 13.4933C6.17708 13.8176 6.4375 14.0813 6.75781 14.0813H10.612V15.6899H6.75781C6.4375 15.6899 6.17708 15.9536 6.17708 16.2779C6.17708 16.6022 6.4375 16.8659 6.75781 16.8659H10.6094V18.4745H6.75521C6.4349 18.4745 6.17448 18.7408 6.17448 19.0625C6.17448 19.3869 6.4375 19.6506 6.75521 19.6506H10.6094V21.2591H6.75521C6.4349 21.2591 6.17448 21.5254 6.17448 21.8471C6.17448 22.1715 6.4375 22.4352 6.75521 22.4352H10.6094V22.7094C10.6094 23.4425 10.3125 24.107 9.83594 24.5922C9.35938 25.0748 8.70052 25.378 7.97656 25.3754C7.04948 25.3754 6.1224 25.3754 5.19531 25.3754C4.58333 25.3754 4.00521 25.1275 3.57292 24.6898C3.15625 24.2679 2.89844 23.6851 2.89583 23.047V10.6137H10.6016L10.612 12.9052ZM10.3281 9.41128V4.93637C10.9323 4.89418 11.4766 4.62785 11.8802 4.21649C12.3229 3.7682 12.5964 3.15116 12.5964 2.47082C12.5964 1.79049 12.3203 1.17081 11.8802 0.722525C11.4375 0.27688 10.8281 0 10.1562 0H3.41406C2.74479 0 2.13542 0.279517 1.69271 0.727799L1.6901 0.725162C1.25 1.17344 0.976562 1.79313 0.976562 2.47346C0.976562 3.15379 1.25 3.77084 1.69271 4.21912C2.07292 4.60412 2.57292 4.8599 3.13281 4.92846L3.13021 9.41128C2.27865 9.41128 1.4375 9.44029 0.580729 9.44029C0.260417 9.43765 0 9.70398 0 10.0283C0 10.3527 0.260417 10.6164 0.580729 10.6164H1.88281V23.0549C1.88281 23.9804 2.25521 24.819 2.85677 25.4281C3.45833 26.0373 4.28646 26.4143 5.20052 26.4143H5.98958L5.99219 30.412C5.99219 30.7363 6.36979 31 6.6901 31C7.01042 31 7.38802 30.7363 7.38802 30.412V26.4117H7.97917C8.98177 26.4117 9.89583 25.9977 10.5573 25.3253C11.2188 24.6529 11.6302 23.7299 11.6302 22.7147V10.619H12.7995C13.1198 10.619 13.3802 10.3527 13.3802 10.031C13.3802 9.70662 13.1198 9.44292 12.7995 9.44292C11.9688 9.44029 11.1562 9.41128 10.3281 9.41128ZM3.41406 1.32639H10.1562C10.4661 1.32639 10.75 1.4556 10.9557 1.66392C11.1615 1.87224 11.2891 2.15703 11.2891 2.47346C11.2891 2.78989 11.1615 3.07469 10.9557 3.283C10.75 3.49132 10.4688 3.62053 10.1562 3.62053H3.41406C3.10156 3.62053 2.82031 3.49132 2.61458 3.283C2.40885 3.07469 2.28125 2.78989 2.28125 2.47346C2.28125 2.15966 2.40885 1.87224 2.61458 1.66392V1.66128C2.82031 1.45296 3.10417 1.32639 3.41406 1.32639ZM4.4401 4.98911H9.01823V9.23988H4.4401V4.98911ZM23.6484 16.212H25.0443C25.3047 16.212 25.5182 16.4282 25.5182 16.6919V18.7988H27.599C27.8594 18.7988 28.0729 19.0151 28.0729 19.2788V20.6922C28.0729 20.9559 27.8594 21.1721 27.599 21.1721H25.5208V23.279C25.5208 23.5427 25.3073 23.7589 25.0469 23.7589H23.651C23.3906 23.7589 23.1771 23.5427 23.1771 23.279V21.1721H21.0938C20.8333 21.1721 20.6198 20.9559 20.6198 20.6922V19.2761C20.6198 19.0124 20.8333 18.7962 21.0938 18.7962H23.1745V16.6919C23.1745 16.4282 23.388 16.212 23.6484 16.212ZM30.4505 13.4643H18.2552C18.2552 12.7813 18.2109 11.7951 18.2839 11.1569C18.513 9.15286 19.5729 7.71308 20.776 6.07554C21.0391 5.71955 21.3099 5.34774 21.5911 4.94956H27.0885C27.3359 5.29764 27.6042 5.65626 27.8672 6.01489C29.0651 7.6287 30.2057 9.16868 30.4167 11.1754C30.4375 11.3732 30.4505 13.4643 30.4505 13.4643ZM19.0365 0.197771H29.8385C30.2891 0.197771 30.6953 0.384995 30.9948 0.685607C31.2917 0.98622 31.4766 1.40022 31.4766 1.85641V3.23818C31.4766 3.69437 31.2917 4.10573 30.9948 4.40898C30.6979 4.7096 30.2891 4.89682 29.8385 4.89682H28.7839C28.9349 5.10778 29.0885 5.31082 29.237 5.51387C30.6667 7.44148 32.026 9.27416 31.9922 11.9507C31.9922 17.0716 31.9948 22.1899 31.9948 27.3109C32.0417 28.2787 31.849 29.0645 31.3385 29.5945C30.8255 30.1219 30.026 30.3619 28.862 30.2379H19.3724V30.2353C18.487 30.2617 17.8438 30.0402 17.4036 29.6051C16.9661 29.1752 16.75 28.5608 16.7161 27.7961C16.7135 27.7776 16.7135 27.7618 16.7135 27.7434V12.5097C16.5312 9.56686 17.75 7.80801 19.3984 5.5666C19.5625 5.3451 19.7292 5.11832 19.8932 4.89154H19.0365C18.5859 4.89154 18.1797 4.70432 17.8802 4.40371C17.5833 4.1031 17.3984 3.6891 17.3984 3.2329V1.85378C17.3984 1.39758 17.5833 0.98622 17.8802 0.68297C18.1771 0.382358 18.5859 0.197771 19.0365 0.197771Z" fill="#A596FF"/>
</g>
<defs>
<clipPath id="clip0_20_3662">
<rect width="32" height="31" fill="white"/>
</clipPath>
</defs>
</svg>
