<svg width="72" height="73" viewBox="0 0 72 73" fill="none" xmlns="http://www.w3.org/2000/svg">
<g id="vuesax/bold/minus-square">
<g id="minus-square">
<path id="Vector" d="M48.57 6.12891H23.43C12.51 6.12891 6 12.6622 6 23.6214V48.8214C6 59.8106 12.51 66.344 23.43 66.344H48.54C59.46 66.344 65.97 59.8106 65.97 48.8515V23.6214C66 12.6622 59.49 6.12891 48.57 6.12891ZM48 38.4945H24C22.77 38.4945 21.75 37.4708 21.75 36.2364C21.75 35.002 22.77 33.9784 24 33.9784H48C49.23 33.9784 50.25 35.002 50.25 36.2364C50.25 37.4708 49.23 38.4945 48 38.4945Z" fill="#F4D447"/>
</g>
</g>
</svg>
